# Blender v2.80 (sub 57) OBJ File: ''
# www.blender.org
mtllib panel.nav.mtl
o 平面
v -5.396550 2.473140 6.689234
v 10.792251 2.473140 6.689234
v -5.396550 2.473140 -6.237366
v 10.792251 2.473140 -6.237366
v 9.267991 8.315752 0.860926
v 9.267991 2.264011 0.860926
v 9.267991 8.315752 -0.409058
v 9.267991 2.264011 -0.409058
v 7.822884 8.310534 0.880787
v 9.271333 8.310534 0.880787
v 7.822884 8.310534 -0.428919
v 9.271333 8.310534 -0.428919
v -4.315581 8.327417 3.782281
v 8.273945 8.327417 3.782281
v -4.315581 8.327417 -3.330413
v 8.273945 8.327417 -3.330413
vt 0.000000 0.000000
vt 1.000000 0.000000
vt 1.000000 1.000000
vt 0.000000 1.000000
vt 0.000000 0.000000
vt 1.000000 0.000000
vt 1.000000 1.000000
vt 0.000000 1.000000
vt 0.000000 0.000000
vt 1.000000 0.000000
vt 1.000000 1.000000
vt 0.000000 1.000000
vt 0.000000 0.000000
vt 1.000000 0.000000
vt 1.000000 1.000000
vt 0.000000 1.000000
vn 0.0000 1.0000 0.0000
vn 1.0000 0.0000 0.0000
usemtl None
s off
f 9/1/1 10/2/1 12/3/1 11/4/1
f 13/5/1 14/6/1 16/7/1 15/8/1
s 1
f 1/9/1 2/10/1 4/11/1 3/12/1
f 5/13/2 6/14/2 8/15/2 7/16/2
